{
  "accessors": [
    {
      "bufferView": 2,
      "componentType": 5126,
      "count": 65533,
      "max": [
        21.50871467590332,
        0.78892797231674194,
        16.106863021850586
      ],
      "min": [
        -21.69061279296875,
        -8.7788782119750977,
        -14.127105712890625
      ],
      "type": "VEC3"
    },
    {
      "bufferView": 2,
      "byteOffset": 786396,
      "componentType": 5126,
      "count": 65533,
      "max": [
        0.9999995231628418,
        0.9959414005279541,
        0.99997508525848389
      ],
      "min": [
        -0.99999630451202393,
        -1,
        -0.99999892711639404
      ],
      "type": "VEC3"
    },
    {
      "bufferView": 3,
      "componentType": 5126,
      "count": 65533,
      "max": [
        0.99999904632568359,
        0.99999654293060303,
        0.99985253810882568,
        1
      ],
      "min": [
        -0.99999463558197021,
        -0.99999862909317017,
        -0.99989217519760132,
        -1
      ],
      "type": "VEC4"
    },
    {
      "bufferView": 1,
      "componentType": 5126,
      "count": 65533,
      "max": [
        0.99973201751708984,
        0.99386501312255859
      ],
      "min": [
        0.00020300000323913991,
        0.00027200000477023423
      ],
      "type": "VEC2"
    },
    {
      "bufferView": 0,
      "componentType": 5125,
      "count": 193461,
      "max": [
        65532
      ],
      "min": [
        0
      ],
      "type": "SCALAR"
    },
    {
      "bufferView": 2,
      "byteOffset": 1572792,
      "componentType": 5126,
      "count": 65532,
      "max": [
        22.134986877441406,
        0.6105009913444519,
        19.08875846862793
      ],
      "min": [
        -20.180517196655273,
        -8.7982349395751953,
        -14.09284496307373
      ],
      "type": "VEC3"
    },
    {
      "bufferView": 2,
      "byteOffset": 2359176,
      "componentType": 5126,
      "count": 65532,
      "max": [
        0.99995040893554688,
        0.99704563617706299,
        0.99998259544372559
      ],
      "min": [
        -0.99997544288635254,
        -0.99999964237213135,
        -0.999991774559021
      ],
      "type": "VEC3"
    },
    {
      "bufferView": 3,
      "byteOffset": 1048528,
      "componentType": 5126,
      "count": 65532,
      "max": [
        0.99999880790710449,
        0.99999916553497314,
        0.99928122758865356,
        1
      ],
      "min": [
        -1,
        -1,
        -0.99991577863693237,
        -1
      ],
      "type": "VEC4"
    },
    {
      "bufferView": 1,
      "byteOffset": 524264,
      "componentType": 5126,
      "count": 65532,
      "max": [
        0.99973201751708984,
        0.99955999851226807
      ],
      "min": [
        0.00024399999529123306,
        0.00027399999089539051
      ],
      "type": "VEC2"
    },
    {
      "bufferView": 0,
      "byteOffset": 773844,
      "componentType": 5125,
      "count": 196047,
      "max": [
        65531
      ],
      "min": [
        0
      ],
      "type": "SCALAR"
    },
    {
      "bufferView": 2,
      "byteOffset": 3145560,
      "componentType": 5126,
      "count": 65532,
      "max": [
        22.195289611816406,
        0.63309502601623535,
        19.582763671875
      ],
      "min": [
        -21.378616333007812,
        -8.5341634750366211,
        -14.055283546447754
      ],
      "type": "VEC3"
    },
    {
      "bufferView": 2,
      "byteOffset": 3931944,
      "componentType": 5126,
      "count": 65532,
      "max": [
        0.9999995231628418,
        0.98981380462646484,
        0.99999916553497314
      ],
      "min": [
        -0.99998676776885986,
        -0.99999916553497314,
        -0.99999642372131348
      ],
      "type": "VEC3"
    },
    {
      "bufferView": 3,
      "byteOffset": 2097040,
      "componentType": 5126,
      "count": 65532,
      "max": [
        1,
        0.9999992847442627,
        0.9998900294303894,
        1
      ],
      "min": [
        -1,
        -0.99999886751174927,
        -0.99989897012710571,
        -1
      ],
      "type": "VEC4"
    },
    {
      "bufferView": 1,
      "byteOffset": 1048520,
      "componentType": 5126,
      "count": 65532,
      "max": [
        0.9997519850730896,
        0.99484097957611084
      ],
      "min": [
        0.00024399999529123306,
        0.00025199999799951911
      ],
      "type": "VEC2"
    },
    {
      "bufferView": 0,
      "byteOffset": 1558032,
      "componentType": 5125,
      "count": 185721,
      "max": [
        65531
      ],
      "min": [
        0
      ],
      "type": "SCALAR"
    },
    {
      "bufferView": 2,
      "byteOffset": 4718328,
      "componentType": 5126,
      "count": 65532,
      "max": [
        22.031589508056641,
        1.3516520261764526,
        19.479181289672852
      ],
      "min": [
        -21.648443222045898,
        -6.7505388259887695,
        -14.1524658203125
      ],
      "type": "VEC3"
    },
    {
      "bufferView": 2,
      "byteOffset": 5504712,
      "componentType": 5126,
      "count": 65532,
      "max": [
        0.99999570846557617,
        0.99950498342514038,
        0.99998855590820312
      ],
      "min": [
        -0.99999797344207764,
        -1,
        -0.99999880790710449
      ],
      "type": "VEC3"
    },
    {
      "bufferView": 3,
      "byteOffset": 3145552,
      "componentType": 5126,
      "count": 65532,
      "max": [
        1,
        0.99999523162841797,
        0.99991810321807861,
        1
      ],
      "min": [
        -0.99999946355819702,
        -0.99999910593032837,
        -0.99997425079345703,
        -1
      ],
      "type": "VEC4"
    },
    {
      "bufferView": 1,
      "byteOffset": 1572776,
      "componentType": 5126,
      "count": 65532,
      "max": [
        0.99975097179412842,
        0.99181801080703735
      ],
      "min": [
        0.00024399999529123306,
        0.00028700000257231295
      ],
      "type": "VEC2"
    },
    {
      "bufferView": 0,
      "byteOffset": 2300916,
      "componentType": 5125,
      "count": 177144,
      "max": [
        65531
      ],
      "min": [
        0
      ],
      "type": "SCALAR"
    },
    {
      "bufferView": 2,
      "byteOffset": 6291096,
      "componentType": 5126,
      "count": 65532,
      "max": [
        22.108497619628906,
        1.427664041519165,
        19.602201461791992
      ],
      "min": [
        -21.308984756469727,
        -8.9683055877685547,
        -14.122920989990234
      ],
      "type": "VEC3"
    },
    {
      "bufferView": 2,
      "byteOffset": 7077480,
      "componentType": 5126,
      "count": 65532,
      "max": [
        0.99999880790710449,
        0.99917614459991455,
        0.9999845027923584
      ],
      "min": [
        -0.99999022483825684,
        -0.99999856948852539,
        -0.9999840259552002
      ],
      "type": "VEC3"
    },
    {
      "bufferView": 3,
      "byteOffset": 4194064,
      "componentType": 5126,
      "count": 65532,
      "max": [
        0.99999982118606567,
        0.9999992847442627,
        0.99974125623703003,
        1
      ],
      "min": [
        -0.99999785423278809,
        -0.99999815225601196,
        -0.99998348951339722,
        -1
      ],
      "type": "VEC4"
    },
    {
      "bufferView": 1,
      "byteOffset": 2097032,
      "componentType": 5126,
      "count": 65532,
      "max": [
        0.99975001811981201,
        0.9997439980506897
      ],
      "min": [
        0.00024399999529123306,
        0.00024500000290572643
      ],
      "type": "VEC2"
    },
    {
      "bufferView": 0,
      "byteOffset": 3009492,
      "componentType": 5125,
      "count": 154782,
      "max": [
        65531
      ],
      "min": [
        0
      ],
      "type": "SCALAR"
    },
    {
      "bufferView": 2,
      "byteOffset": 7863864,
      "componentType": 5126,
      "count": 50633,
      "max": [
        22.147542953491211,
        1.3507590293884277,
        19.56756591796875
      ],
      "min": [
        -21.343009948730469,
        -8.9779300689697266,
        -14.110210418701172
      ],
      "type": "VEC3"
    },
    {
      "bufferView": 2,
      "byteOffset": 8471460,
      "componentType": 5126,
      "count": 50633,
      "max": [
        0.99999630451202393,
        0.99997341632843018,
        0.99997508525848389
      ],
      "min": [
        -0.99997544288635254,
        -0.99999785423278809,
        -0.99999415874481201
      ],
      "type": "VEC3"
    },
    {
      "bufferView": 3,
      "byteOffset": 5242576,
      "componentType": 5126,
      "count": 50633,
      "max": [
        1,
        0.99999743700027466,
        0.99992817640304565,
        1
      ],
      "min": [
        -0.99999761581420898,
        -0.99999713897705078,
        -0.99995905160903931,
        -1
      ],
      "type": "VEC4"
    },
    {
      "bufferView": 1,
      "byteOffset": 2621288,
      "componentType": 5126,
      "count": 50633,
      "max": [
        0.99974602460861206,
        0.9958069920539856
      ],
      "min": [
        0.00024399999529123306,
        0.00024900000425986946
      ],
      "type": "VEC2"
    },
    {
      "bufferView": 0,
      "byteOffset": 3628620,
      "componentType": 5125,
      "count": 109626,
      "max": [
        50632
      ],
      "min": [
        0
      ],
      "type": "SCALAR"
    }
  ],
  "asset": {
    "extras": {
      "author": "Bonn Center for Digital Humanities (https://sketchfab.com/bcdh)",
      "license": "CC-BY-4.0 (http://creativecommons.org/licenses/by/4.0/)",
      "source": "https://sketchfab.com/3d-models/bath-of-the-roman-villa-in-ahrweiler-9b402c54070c4573a6092e2914b63cd4",
      "title": "Bath of the Roman villa in Ahrweiler"
    },
    "generator": "Sketchfab-9.46.0",
    "version": "2.0"
  },
  "bufferViews": [
    {
      "buffer": 0,
      "byteLength": 4067124,
      "byteOffset": 0,
      "name": "floatBufferViews",
      "target": 34963
    },
    {
      "buffer": 0,
      "byteLength": 3026352,
      "byteOffset": 4067124,
      "byteStride": 8,
      "name": "floatBufferViews",
      "target": 34962
    },
    {
      "buffer": 0,
      "byteLength": 9079056,
      "byteOffset": 7093476,
      "byteStride": 12,
      "name": "floatBufferViews",
      "target": 34962
    },
    {
      "buffer": 0,
      "byteLength": 6052704,
      "byteOffset": 16172532,
      "byteStride": 16,
      "name": "floatBufferViews",
      "target": 34962
    }
  ],
  "buffers": [
    {
      "byteLength": 22225236,
      "uri": "scene.bin"
    }
  ],
  "images": [
    {
      "uri": "textures/roem_villa_silberberg_Modell_20_u1_v1_baseColor.jpeg"
    },
    {
      "uri": "textures/roem_villa_silberberg_Modell_20_u1_v1_metallicRoughness.png"
    },
    {
      "uri": "textures/roem_villa_silberberg_Modell_20_u1_v1_normal.png"
    }
  ],
  "materials": [
    {
      "doubleSided": true,
      "name": "roem_villa_silberberg_Modell_20_u1_v1",
      "normalTexture": {
        "index": 2,
        "scale": 1,
        "texCoord": 0
      },
      "occlusionTexture": {
        "index": 1,
        "strength": 1,
        "texCoord": 0
      },
      "pbrMetallicRoughness": {
        "baseColorFactor": [
          1,
          1,
          1,
          1
        ],
        "baseColorTexture": {
          "index": 0,
          "texCoord": 0
        },
        "metallicFactor": 0,
        "metallicRoughnessTexture": {
          "index": 1,
          "texCoord": 0
        },
        "roughnessFactor": 0.59999999999999998
      }
    }
  ],
  "meshes": [
    {
      "primitives": [
        {
          "attributes": {
            "NORMAL": 1,
            "POSITION": 0,
            "TANGENT": 2,
            "TEXCOORD_0": 3
          },
          "indices": 4,
          "material": 0,
          "mode": 4
        }
      ]
    },
    {
      "primitives": [
        {
          "attributes": {
            "NORMAL": 6,
            "POSITION": 5,
            "TANGENT": 7,
            "TEXCOORD_0": 8
          },
          "indices": 9,
          "material": 0,
          "mode": 4
        }
      ]
    },
    {
      "primitives": [
        {
          "attributes": {
            "NORMAL": 11,
            "POSITION": 10,
            "TANGENT": 12,
            "TEXCOORD_0": 13
          },
          "indices": 14,
          "material": 0,
          "mode": 4
        }
      ]
    },
    {
      "primitives": [
        {
          "attributes": {
            "NORMAL": 16,
            "POSITION": 15,
            "TANGENT": 17,
            "TEXCOORD_0": 18
          },
          "indices": 19,
          "material": 0,
          "mode": 4
        }
      ]
    },
    {
      "primitives": [
        {
          "attributes": {
            "NORMAL": 21,
            "POSITION": 20,
            "TANGENT": 22,
            "TEXCOORD_0": 23
          },
          "indices": 24,
          "material": 0,
          "mode": 4
        }
      ]
    },
    {
      "primitives": [
        {
          "attributes": {
            "NORMAL": 26,
            "POSITION": 25,
            "TANGENT": 27,
            "TEXCOORD_0": 28
          },
          "indices": 29,
          "material": 0,
          "mode": 4
        }
      ]
    }
  ],
  "nodes": [
    {
      "children": [
        1
      ],
      "name": "RootNode (gltf orientation matrix)",
      "rotation": [
        -0.70710678118654746,
        -0,
        -0,
        0.70710678118654757
      ]
    },
    {
      "children": [
        2
      ],
      "matrix": [
        1,
        -1.5988789788741226e-16,
        -1.6173134598310303e-16,
        0,
        -1.6081226229577292e-16,
        0.0057317069731652737,
        -0.99998354911804199,
        0,
        1.6081226229577292e-16,
        0.99998354911804199,
        0.0057317069731652737,
        0,
        -1.0547118733938987e-15,
        -6.4782519340515137,
        -1.0658941268920898,
        1
      ],
      "name": "RootNode (model correction matrix)"
    },
    {
      "children": [
        3,
        4,
        5,
        6,
        7,
        8
      ],
      "name": "CL_roem_villa_silberberg_Modell_20.OBJ.cleaner.materialmerger.gles"
    },
    {
      "mesh": 0,
      "name": ""
    },
    {
      "mesh": 1,
      "name": ""
    },
    {
      "mesh": 2,
      "name": ""
    },
    {
      "mesh": 3,
      "name": ""
    },
    {
      "mesh": 4,
      "name": ""
    },
    {
      "mesh": 5,
      "name": ""
    }
  ],
  "samplers": [
    {
      "magFilter": 9729,
      "minFilter": 9987,
      "wrapS": 10497,
      "wrapT": 10497
    }
  ],
  "scene": 0,
  "scenes": [
    {
      "name": "OSG_Scene",
      "nodes": [
        0
      ]
    }
  ],
  "textures": [
    {
      "sampler": 0,
      "source": 0
    },
    {
      "sampler": 0,
      "source": 1
    },
    {
      "sampler": 0,
      "source": 2
    }
  ]
}

